<svg width="16" height="16" viewBox="0 0 16 16" fill="none" xmlns="http://www.w3.org/2000/svg">
<path d="M4.84419 6.69931C4.46292 7.20611 4.72435 7.82054 5.33579 7.86051C5.69232 7.88381 6.14782 7.90454 6.72542 7.91721C6.74569 9.44907 6.80269 10.8973 6.84499 11.6276C6.87215 12.0969 7.14749 12.2753 7.59069 12.3167C7.69899 12.3268 7.82045 12.333 7.95539 12.333C8.10502 12.333 8.23809 12.3254 8.35505 12.3132C8.77882 12.2693 9.04792 12.1145 9.08729 11.6663C9.15099 10.9409 9.23902 9.47654 9.26999 7.91727C9.84909 7.90464 10.3056 7.88387 10.6628 7.86051C11.2744 7.82054 11.5358 7.20594 11.1545 6.69904C10.8973 6.35717 10.5529 5.92421 10.0969 5.39208C9.39739 4.57581 8.87285 4.10954 8.52329 3.84741C8.20132 3.60598 7.79769 3.60601 7.47572 3.84744C7.12619 4.10961 6.60165 4.57584 5.90212 5.39208C5.44592 5.92434 5.10139 6.35737 4.84419 6.69931Z" fill="#101E2C"/>
</svg>
